<svg xmlns="http://www.w3.org/2000/svg" xmlns:svg="http://www.w3.org/2000/svg" id="svg4612" width="36mm" height="86.862" version="1.1" viewBox="0 0 36 22.982"><defs id="defs4606"><filter style="color-interpolation-filters:sRGB" id="filter4310"><feGaussianBlur id="feGaussianBlur4312" result="fbSourceGraphic" stdDeviation="5"/><feGaussianBlur id="feGaussianBlur4314" in="SourceGraphic" result="result1" stdDeviation=".01"/><feComposite id="feComposite4316" in="fbSourceGraphic" in2="result1" k1="0" k2=".5" k3=".5" k4="0" operator="arithmetic" result="result2"/><feBlend id="feBlend4318" in2="fbSourceGraphic" mode="normal" result="result3"/></filter></defs><metadata id="metadata4609"/><g id="layer1" transform="translate(-105.00605,-39.416329)"><path style="opacity:1;fill:#999;fill-opacity:1;fill-rule:evenodd;stroke:none;stroke-width:1.88699996;stroke-miterlimit:4;stroke-dasharray:none;stroke-dashoffset:0;stroke-opacity:.99479167;filter:url(#filter4310)" id="rect4293" d="m 2113.8203,964.45898 c -6.2998,0 -11.3711,5.07132 -11.3711,11.3711 v 209.06052 c 0,0.5329 0.049,1.0515 0.1192,1.5645 h -0.1192 v 2.1054 h -37.3906 c -2.1051,3.6695 -1.1696,5.8194 0,7.8516 0.1731,0.3008 0.5427,0.6037 1.0605,0.9063 h -0.5839 c 4.8424,4.7424 15.3775,8.4296 22.8398,8.4296 h 408.7949 c 7.462,0 14.0809,-3.6872 18.9395,-8.4296 h -0.6875 c 0.5603,-0.3043 0.9692,-0.6067 1.166,-0.9063 1.9309,-2.9388 0.7917,-5.3666 0,-7.8516 h -37.582 v -2.1054 h -0.1172 c 0.07,-0.513 0.1172,-1.0316 0.1172,-1.5645 V 975.83008 c 0,-6.29978 -5.0714,-11.3711 -11.3711,-11.3711 z" transform="matrix(0.079153,0,0,0.079379,-58.309801,-35.417991)"/><rect id="rect4327-2" width="29.577" height="18.207" x="108.193" y="41.279" ry=".893" style="opacity:1;fill:#fff;fill-opacity:1;fill-rule:evenodd;stroke:none;stroke-width:.27181366;stroke-miterlimit:4;stroke-dasharray:none;stroke-dashoffset:0;stroke-opacity:.99479167"/><rect style="opacity:1;fill:#ececec;fill-opacity:1;fill-rule:evenodd;stroke:none;stroke-width:.27181366;stroke-miterlimit:4;stroke-dasharray:none;stroke-dashoffset:0;stroke-opacity:.99479167" id="rect4233" width="29.577" height=".181" x="108.193" y="58.716" ry="0"/><path id="path4329-5" d="m 105.25634,58.881171 c -0.16535,0.288233 -0.0919,0.457038 0,0.616658 0.20258,0.352004 3.61196,0.733237 4.23495,0.733237 h 26.98419 c 0.62297,0 4.02362,-0.393798 4.24665,-0.733237 0.15166,-0.230827 0.0622,-0.421468 0,-0.616658 z" style="opacity:1;fill:#fff;fill-opacity:1;fill-rule:evenodd;stroke:none;stroke-width:.27181366;stroke-miterlimit:4;stroke-dasharray:none;stroke-dashoffset:0;stroke-opacity:.99479167"/><rect style="opacity:1;fill:#b3b3b3;fill-opacity:1;fill-rule:evenodd;stroke:none;stroke-width:.14404541;stroke-linejoin:round;stroke-miterlimit:4;stroke-dasharray:none;stroke-dashoffset:0;stroke-opacity:.99479167" id="rect5439-5" width="27.477" height="15.307" x="109.243" y="42.257" ry="0"/><path style="opacity:1;fill:#e6e6e6;fill-opacity:1;fill-rule:evenodd;stroke:none;stroke-width:.27181366;stroke-miterlimit:4;stroke-dasharray:none;stroke-dashoffset:0;stroke-opacity:.99479167" id="path5441-4" d="m 119.47302,58.897339 v 0.259123 c 0,0.170665 0.0995,0.308108 0.22299,0.308108 h 6.58647 c 0.12353,0 0.22296,-0.137443 0.22296,-0.308108 v -0.259123 z"/><path style="opacity:1;fill:#e6e6e6;fill-opacity:1;fill-rule:evenodd;stroke:none;stroke-width:.27181366;stroke-miterlimit:4;stroke-dasharray:none;stroke-dashoffset:0;stroke-opacity:.99479167" id="path4240" d="m 105.29377,59.568998 c 0.38035,0.372492 1.20787,0.662112 1.794,0.662112 h 32.10917 c 0.58611,0 1.10601,-0.28962 1.48763,-0.662112 z"/><rect id="rect4176-6-7" width=".374" height=".282" x="122.795" y="41.666" ry=".125" style="opacity:1;fill:#b0bec5;fill-opacity:1;fill-rule:evenodd;stroke:none;stroke-width:.14404541;stroke-miterlimit:4;stroke-dasharray:none;stroke-dashoffset:0;stroke-opacity:.99479167"/><rect id="rect4260" width="27.394" height="15.217" x="109.326" y="42.347" ry="0" style="opacity:1;fill:#333;fill-opacity:1;fill-rule:evenodd;stroke:none;stroke-width:.14404541;stroke-linejoin:round;stroke-miterlimit:4;stroke-dasharray:none;stroke-dashoffset:0;stroke-opacity:.99479167"/></g></svg>