<svg xmlns="http://www.w3.org/2000/svg" xmlns:svg="http://www.w3.org/2000/svg" id="svg52" width="600" height="600" version="1.0"><metadata id="metadata56"/><defs id="shapes_n_styles"><marker id="marker4930" orient="auto" refX="0" refY="0" style="overflow:visible"><path id="path4928" d="M 0.0,0.0 L 5.0,-5.0 L -12.5,0.0 L 5.0,5.0 L 0.0,0.0 z" transform="scale(0.4) rotate(180) translate(10,0)" style="fill-rule:evenodd;stroke:#000;stroke-width:1pt;stroke-opacity:1;fill:#000;fill-opacity:1"/></marker><marker id="marker4890" orient="auto" refX="0" refY="0" style="overflow:visible"><path id="path4578" d="M 0.0,0.0 L 5.0,-5.0 L -12.5,0.0 L 5.0,5.0 L 0.0,0.0 z" transform="scale(0.4) rotate(180) translate(10,0)" style="fill-rule:evenodd;stroke:#000;stroke-width:1pt;stroke-opacity:1;fill:#000;fill-opacity:1"/></marker><marker id="Arrow2Mend" orient="auto" refX="0" refY="0" style="overflow:visible"><path id="path4596" d="M 8.7185878,4.0337352 L -2.2072895,0.016013256 L 8.7185884,-4.0017078 C 6.9730900,-1.6296469 6.9831476,1.6157441 8.7185878,4.0337352 z" transform="scale(0.6) rotate(180) translate(0,0)" style="fill-rule:evenodd;stroke-width:.625;stroke-linejoin:round;stroke:#000;stroke-opacity:1;fill:#000;fill-opacity:1"/></marker><marker id="Arrow1Lstart" orient="auto" refX="0" refY="0" style="overflow:visible"><path id="path4569" d="M 0.0,0.0 L 5.0,-5.0 L -12.5,0.0 L 5.0,5.0 L 0.0,0.0 z" transform="scale(0.8) translate(12.5,0)" style="fill-rule:evenodd;stroke:#000;stroke-width:1pt;stroke-opacity:1;fill:#000;fill-opacity:1"/></marker><marker id="Arrow1Mend" orient="auto" refX="0" refY="0" style="overflow:visible"><path style="fill-rule:evenodd;stroke:#000;stroke-width:1pt;marker-start:none" id="path2" d="M 0.0,0.0 L 5.0,-5.0 L -12.5,0.0 L 5.0,5.0 L 0.0,0.0 z" transform="scale(0.4) rotate(180)"/></marker><style id="style5" type="text/css">.simple{stroke:#000;stroke-width:1;fill:none}.lightGray{stroke:#000;fill:#e0e0e0}.lightGray,.lightRed,.white{stroke-width:1}.white{stroke:#000;fill:#fff}.lightRed{stroke:red;fill:#ff8080}.green,.violet{stroke-width:1}.violet{stroke:#f0f;fill:#a000a0}.green{stroke:#0f0;fill:#00a000}.labels{font-size:32px;font-style:normal;font-family:Bitstream Vera Sans}</style></defs><circle id="radius200" cx="300" cy="300" r="200" class="lightGray"/><path id="track" d="M 360,196.08 A 120,120 0 1 0 403.92,240 L 395.26,245 A 110,110 0 1 1 355,204.74 Z" class="lightRed"/><path id="sectorOfTrack" d="M 360,196.08 A 120,120 0 0 1 403.92,240 L 395.26,245 A 110,110 0 0 0 355,204.74 Z" class="violet"/><path id="cluster" d="M 210, 455.8845727 A 180 180 0 0 0 455.8845727, 390 L 447.2243186, 385 A 170 170 0 0 1 215, 447.2243186 Z" class="green"/><circle id="radius50" cx="300" cy="300" r="50" class="white"/><circle id="radius60" cx="300" cy="300" r="60" class="simple"/><circle id="radius70" cx="300" cy="300" r="70" class="simple"/><circle id="radius80" cx="300" cy="300" r="80" class="simple"/><circle id="radius90" cx="300" cy="300" r="90" class="simple"/><circle id="radius100" cx="300" cy="300" r="100" class="simple"/><circle id="radius110" cx="300" cy="300" r="110" class="simple"/><circle id="radius120" cx="300" cy="300" r="120" class="simple"/><circle id="radius130" cx="300" cy="300" r="130" class="simple"/><circle id="radius140" cx="300" cy="300" r="140" class="simple"/><circle id="radius150" cx="300" cy="300" r="150" class="simple"/><circle id="radius160" cx="300" cy="300" r="160" class="simple"/><circle id="radius170" cx="300" cy="300" r="170" class="simple"/><circle id="radius180" cx="300" cy="300" r="180" class="simple"/><circle id="radius190" cx="300" cy="300" r="190" class="simple"/><line id="0" x1="350" x2="500" y1="300" y2="300" class="simple"/><line id="30" x1="473.2" x2="343.3" y1="200" y2="275" class="simple"/><line id="60" x1="400" x2="325" y1="128.8" y2="256.7" class="simple"/><line id="90" x1="300" x2="300" y1="100" y2="250" class="simple"/><line id="120" x1="200" x2="275" y1="128.8" y2="256.7" class="simple"/><line id="150" x1="128.8" x2="256.7" y1="200" y2="275" class="simple"/><line id="180" x1="100" x2="250" y1="300" y2="300" class="simple"/><line id="210" x1="128.8" x2="256.7" y1="400" y2="325" class="simple"/><line id="240" x1="200" x2="275" y1="473.2" y2="343.3" class="simple"/><line id="270" x1="300" x2="300" y1="350" y2="500" class="simple"/><line id="300" x1="400" x2="325" y1="473.2" y2="343.3" class="simple"/><line id="330" x1="473.2" x2="343.3" y1="400" y2="325" class="simple"/><path id="arrowA" d="M 364.7047613,58.51854343 L 329.7641902,188.91853 Z" class="simple" style="marker-end:url(#marker4890)"/><text id="text41" x="325.155" y="46.833" class="labels" style="font-style:normal;font-size:32px;font-family:'Bitstream Vera Sans'"><tspan style="font-style:normal;font-variant:normal;font-weight:400;font-stretch:normal;font-family:'CMU Sans Serif';-inkscape-font-specification:'CMU Sans Serif'" id="tspan4547">Track</tspan></text><path id="arrowB" d="M 460.6969024, 108.4888892 L 373.9205751,211.904889 Z" class="simple" style="marker-end:url(#Arrow2Mend)"/><path id="arrowD" d="M 364.7047613,541.4814566 L 345.2933329, 469.0370196 Z" class="simple" style="marker-end:url(#marker4930)"/><text id="text50" x="351.222" y="577.436" class="labels" style="font-style:normal;font-size:32px;font-family:'Bitstream Vera Sans'"><tspan style="-inkscape-font-specification:'CMU Sans Serif';font-family:'CMU Sans Serif';font-weight:400;font-style:normal;font-stretch:normal;font-variant:normal" id="tspan4549">Cluster</tspan></text><text id="text41-2" x="454.664" y="101.719" class="labels" style="font-style:normal;font-size:32px;font-family:'Bitstream Vera Sans'"><tspan style="font-style:normal;font-variant:normal;font-weight:400;font-stretch:normal;font-family:'CMU Sans Serif';-inkscape-font-specification:'CMU Sans Serif'" id="tspan4547-6">Sector</tspan></text></svg>