<svg xmlns="http://www.w3.org/2000/svg" xmlns:cc="http://web.resource.org/cc/" xmlns:svg="http://www.w3.org/2000/svg" xmlns:xlink="http://www.w3.org/1999/xlink" id="svg2" width="400pt" height="192" version="1.0"><metadata id="metadata7"/><text style="font-size:72px;font-style:normal;font-variant:normal;font-weight:400;font-stretch:normal;text-align:start;line-height:125%;writing-mode:lr-tb;text-anchor:start;fill:#000;fill-opacity:1;stroke:none;stroke-width:1px;stroke-linecap:butt;stroke-linejoin:miter;stroke-opacity:1;font-family:Verdana" id="text1308" x="9" y="77.174" xml:space="preserve"><tspan id="tspan1310" x="9" y="77.174">A</tspan></text><text id="text1312" x="9" y="155.174" xml:space="preserve" style="font-size:72px;font-style:normal;font-variant:normal;font-weight:400;font-stretch:normal;text-align:start;line-height:125%;writing-mode:lr-tb;text-anchor:start;fill:#000;fill-opacity:1;stroke:none;stroke-width:1px;stroke-linecap:butt;stroke-linejoin:miter;stroke-opacity:1;font-family:Verdana"><tspan id="tspan1314" x="9" y="155.174">B</tspan></text><path style="fill:none;fill-opacity:.75;fill-rule:evenodd;stroke:#000;stroke-width:7.5;stroke-linecap:round;stroke-linejoin:miter;stroke-opacity:1;stroke-miterlimit:4;stroke-dasharray:none" id="path1316" d="M 72,51 L 185,51"/><use id="use1318" width="500" height="180" x="0" y="0" transform="translate(0,78)" xlink:href="#path1316"/><use id="use2208" width="500" height="180" x="0" y="0" transform="translate(196.5757,39)" xlink:href="#path1316"/><path id="rect2193" d="M 207,171 L 135.7,170.99994 L 135.7,12.499996 L 207.46,12.49997 C 246.3576,12.499945 278.3,48.003958 278.3,91.749974 C 278.3,135.49599 246.3576,171 207,171 z" style="fill:#fff;fill-opacity:1;fill-rule:evenodd;stroke:#000;stroke-width:7.49999857;stroke-linecap:butt;stroke-linejoin:round;stroke-miterlimit:4;stroke-dashoffset:0;stroke-opacity:1"/><text style="font-size:56px;font-style:normal;font-variant:normal;font-weight:400;font-stretch:normal;text-align:start;line-height:125%;writing-mode:lr-tb;text-anchor:start;fill:#000;fill-opacity:1;stroke:none;stroke-width:1px;stroke-linecap:butt;stroke-linejoin:miter;stroke-opacity:1;font-family:Verdana" id="text2210" x="395.412" y="109.236" xml:space="preserve"><tspan id="tspan2212" x="395.412" y="109.236">out</tspan></text><path id="path2247" d="M 305.47014 89.843887 A 20.152544 20.152544 0 1 1 265.16505,89.843887 A 20.152544 20.152544 0 1 1 305.47014 89.843887 z" transform="translate(12.90989,-0.353527)" style="opacity:1;fill:#fff;fill-opacity:1;fill-rule:evenodd;stroke:#000;stroke-width:7.5;stroke-linecap:round;stroke-linejoin:round;stroke-miterlimit:4;stroke-dasharray:none;stroke-dashoffset:0;stroke-opacity:1"/></svg>