<svg xmlns="http://www.w3.org/2000/svg" xmlns:xlink="http://www.w3.org/1999/xlink" width="597" height="934" fill="#000" fill-opacity="1" stroke="#000" stroke-dasharray="none" stroke-dashoffset="0" stroke-linecap="square" stroke-linejoin="miter" stroke-miterlimit="10" stroke-opacity="1" stroke-width="1" color-interpolation="auto" color-rendering="auto" font-family="'Dialog'" font-size="12" font-style="normal" font-weight="normal" image-rendering="auto" shape-rendering="auto" text-rendering="auto"><g><defs id="defs1"><clipPath id="clipPath1" clipPathUnits="userSpaceOnUse"><path d="M0 0 L597 0 L597 934 L0 934 L0 0 Z"/></clipPath><clipPath id="clipPath2" clipPathUnits="userSpaceOnUse"><path d="M-15 -15 L582 -15 L582 919 L-15 919 L-15 -15 Z"/></clipPath></defs><g stroke-linecap="butt" stroke-miterlimit="1.45" font-family="'CMU Typewriter Text Variable Width'" shape-rendering="geometricPrecision" text-rendering="geometricPrecision"><text x="17.05" y="12.143" stroke="none" clip-path="url(#clipPath2)" transform="matrix(1,0,0,1,15,15)" xml:space="preserve">&lt;0&gt;&lt;b&gt;: Abbrev Number: 1 (DW_TAG_compile_unit)</text></g><g stroke-linecap="butt" stroke-miterlimit="1.45" font-family="'CMU Typewriter Text Variable Width'" shape-rendering="geometricPrecision" text-rendering="geometricPrecision" transform="matrix(1,0,0,1,15,15)"><text x="17.05" y="26.996" stroke="none" clip-path="url(#clipPath2)" xml:space="preserve">&lt;c&gt; DW_AT_producer : (indirect string, offset: 0xe): GNU C11</text><text x="17.05" y="41.85" stroke="none" clip-path="url(#clipPath2)" xml:space="preserve">5.4.0 20160609 -masm=intel -m32 -mtune=generic -march=i686 -g</text><text x="17.05" y="56.703" stroke="none" clip-path="url(#clipPath2)" xml:space="preserve">-fstack-protector-strong</text><text x="17.05" y="71.557" stroke="none" clip-path="url(#clipPath2)" xml:space="preserve">&lt;10&gt; DW_AT_language : 12 (ANSI C99)</text><text x="17.05" y="86.41" stroke="none" clip-path="url(#clipPath2)" xml:space="preserve">&lt;11&gt; DW_AT_name : (indirect string, offset: 0xbe): hello.c</text><text x="17.05" y="101.264" stroke="none" clip-path="url(#clipPath2)" xml:space="preserve">&lt;15&gt; DW_AT_comp_dir : (indirect string, offset: 0x97): /tmp</text><text x="17.05" y="116.117" stroke="none" clip-path="url(#clipPath2)" xml:space="preserve">&lt;19&gt; DW_AT_low_pc : 0x804840b</text><text x="17.05" y="130.971" stroke="none" clip-path="url(#clipPath2)" xml:space="preserve">&lt;1d&gt; DW_AT_high_pc : 0x2e</text><text x="17.05" y="145.824" stroke="none" clip-path="url(#clipPath2)" xml:space="preserve">&lt;21&gt; DW_AT_stmt_list : 0x0</text><rect width="437.623" height="152.535" x="0" y="0" fill="none" clip-path="url(#clipPath2)" rx="4" ry="4"/></g><g fill="#FFC" stroke="#FFC" shape-rendering="geometricPrecision" text-rendering="geometricPrecision" transform="matrix(1,0,0,1,15,15)"><rect width="485.295" height="63.414" x="40" y="265.949" stroke="none" clip-path="url(#clipPath2)" rx="4" ry="4"/><rect width="485.295" height="63.414" x="40" y="265.949" fill="none" stroke="#000" stroke-miterlimit="1.6" clip-path="url(#clipPath2)"/></g><g stroke-linecap="butt" stroke-miterlimit="1.45" font-family="'CMU Typewriter Text Variable Width'" shape-rendering="geometricPrecision" text-rendering="geometricPrecision"><text x="42" y="278.092" stroke="none" clip-path="url(#clipPath2)" transform="matrix(1,0,0,1,15,15)" xml:space="preserve">&lt;1&gt;&lt;2c&gt;: Abbrev Number: 2 (DW_TAG_base_type)</text><text x="42" y="292.945" stroke="none" clip-path="url(#clipPath2)" transform="matrix(1,0,0,1,15,15)" xml:space="preserve">&lt;2d&gt; DW_AT_byte_size : 1</text><text x="42" y="307.799" stroke="none" clip-path="url(#clipPath2)" transform="matrix(1,0,0,1,15,15)" xml:space="preserve">&lt;2e&gt; DW_AT_encoding : 8 (unsigned char)</text><text x="42" y="322.652" stroke="none" clip-path="url(#clipPath2)" transform="matrix(1,0,0,1,15,15)" xml:space="preserve">&lt;2f&gt; DW_AT_name : (indirect string, offset: 0x84): unsigned char</text></g><g fill="#FFC" stroke="#FFC" shape-rendering="geometricPrecision" text-rendering="geometricPrecision" transform="matrix(1,0,0,1,15,15)"><rect width="485.295" height="63.414" x="40" y="192.535" stroke="none" clip-path="url(#clipPath2)" rx="4" ry="4"/><rect width="485.295" height="63.414" x="40" y="192.535" fill="none" stroke="#000" stroke-miterlimit="1.6" clip-path="url(#clipPath2)"/></g><g stroke-linecap="butt" stroke-miterlimit="1.45" font-family="'CMU Typewriter Text Variable Width'" shape-rendering="geometricPrecision" text-rendering="geometricPrecision"><text x="42" y="204.678" stroke="none" clip-path="url(#clipPath2)" transform="matrix(1,0,0,1,15,15)" xml:space="preserve">&lt;1&gt;&lt;25&gt;: Abbrev Number: 2 (DW_TAG_base_type)</text><text x="42" y="219.531" stroke="none" clip-path="url(#clipPath2)" transform="matrix(1,0,0,1,15,15)" xml:space="preserve">&lt;26&gt; DW_AT_byte_size : 4</text><text x="42" y="234.385" stroke="none" clip-path="url(#clipPath2)" transform="matrix(1,0,0,1,15,15)" xml:space="preserve">&lt;27&gt; DW_AT_encoding : 7 (unsigned)</text><text x="42" y="249.238" stroke="none" clip-path="url(#clipPath2)" transform="matrix(1,0,0,1,15,15)" xml:space="preserve">&lt;28&gt; DW_AT_name : (indirect string, offset: 0x77): unsigned int</text></g><g fill="#FFC" stroke="#FFC" shape-rendering="geometricPrecision" text-rendering="geometricPrecision" transform="matrix(1,0,0,1,15,15)"><rect width="485.295" height="63.414" x="40" y="339.363" stroke="none" clip-path="url(#clipPath2)"/><rect width="485.295" height="63.414" x="40" y="339.363" fill="none" stroke="#000" stroke-miterlimit="1.6" clip-path="url(#clipPath2)"/></g><g stroke-linecap="butt" stroke-miterlimit="1.45" font-family="'CMU Typewriter Text Variable Width'" shape-rendering="geometricPrecision" text-rendering="geometricPrecision"><text x="42" y="351.506" stroke="none" clip-path="url(#clipPath2)" transform="matrix(1,0,0,1,15,15)" xml:space="preserve">&lt;1&gt;&lt;33&gt;: Abbrev Number: 2 (DW_TAG_base_type)</text><text x="42" y="366.359" stroke="none" clip-path="url(#clipPath2)" transform="matrix(1,0,0,1,15,15)" xml:space="preserve">&lt;34&gt; DW_AT_byte_size : 2</text><text x="42" y="381.213" stroke="none" clip-path="url(#clipPath2)" transform="matrix(1,0,0,1,15,15)" xml:space="preserve">&lt;35&gt; DW_AT_encoding : 7 (unsigned)</text><text x="42" y="396.066" stroke="none" clip-path="url(#clipPath2)" transform="matrix(1,0,0,1,15,15)" xml:space="preserve">&lt;36&gt; DW_AT_name : (indirect string, offset: 0xa1): short unsigned int</text></g><g fill="#FFC" stroke="#FFC" shape-rendering="geometricPrecision" text-rendering="geometricPrecision" transform="matrix(1,0,0,1,15,15)"><rect width="485.295" height="63.414" x="40" y="412.777" stroke="none" clip-path="url(#clipPath2)" rx="4" ry="4"/><rect width="485.295" height="63.414" x="40" y="412.777" fill="none" stroke="#000" stroke-miterlimit="1.6" clip-path="url(#clipPath2)"/></g><g stroke-linecap="butt" stroke-miterlimit="1.45" font-family="'CMU Typewriter Text Variable Width'" shape-rendering="geometricPrecision" text-rendering="geometricPrecision"><text x="42" y="424.92" stroke="none" clip-path="url(#clipPath2)" transform="matrix(1,0,0,1,15,15)" xml:space="preserve">&lt;1&gt;&lt;3a&gt;: Abbrev Number: 2 (DW_TAG_base_type)</text><text x="42" y="439.773" stroke="none" clip-path="url(#clipPath2)" transform="matrix(1,0,0,1,15,15)" xml:space="preserve">&lt;3b&gt; DW_AT_byte_size : 4</text><text x="42" y="454.627" stroke="none" clip-path="url(#clipPath2)" transform="matrix(1,0,0,1,15,15)" xml:space="preserve">&lt;3c&gt; DW_AT_encoding : 7 (unsigned)</text><text x="42" y="469.481" stroke="none" clip-path="url(#clipPath2)" transform="matrix(1,0,0,1,15,15)" xml:space="preserve">&lt;3d&gt; DW_AT_name : (indirect string, offset: 0x72): long unsigned int</text><text x="42" y="498.334" stroke="none" clip-path="url(#clipPath2)" transform="matrix(1,0,0,1,15,15)" xml:space="preserve">............................................many more base type entries ...................</text></g><g fill="#FFC" stroke="#FFC" shape-rendering="geometricPrecision" text-rendering="geometricPrecision" transform="matrix(1,0,0,1,15,15)"><rect width="485.295" height="182.242" x="40" y="515.045" stroke="none" clip-path="url(#clipPath2)" rx="4" ry="4"/></g><g stroke-linecap="butt" stroke-miterlimit="1.45" font-family="'CMU Typewriter Text Variable Width'" shape-rendering="geometricPrecision" text-rendering="geometricPrecision" transform="matrix(1,0,0,1,15,15)"><text x="42" y="527.188" stroke="none" clip-path="url(#clipPath2)" xml:space="preserve">&lt;1&gt;&lt;7f&gt;: Abbrev Number: 5 (DW_TAG_subprogram)</text><text x="42" y="542.041" stroke="none" clip-path="url(#clipPath2)" xml:space="preserve">&lt;80&gt; DW_AT_external : 1</text><text x="42" y="556.894" stroke="none" clip-path="url(#clipPath2)" xml:space="preserve">&lt;80&gt; DW_AT_name : (indirect string, offset: 0x92): main</text><text x="42" y="571.748" stroke="none" clip-path="url(#clipPath2)" xml:space="preserve">&lt;84&gt; DW_AT_decl_file : 1</text><text x="42" y="586.602" stroke="none" clip-path="url(#clipPath2)" xml:space="preserve">&lt;85&gt; DW_AT_decl_line : 3</text><text x="42" y="601.455" stroke="none" clip-path="url(#clipPath2)" xml:space="preserve">&lt;86&gt; DW_AT_prototyped : 1</text><text x="42" y="616.309" stroke="none" clip-path="url(#clipPath2)" xml:space="preserve">&lt;86&gt; DW_AT_type : &lt;0x4f&gt;</text><text x="42" y="631.162" stroke="none" clip-path="url(#clipPath2)" xml:space="preserve">&lt;8a&gt; DW_AT_low_pc : 0x804840b</text><text x="42" y="646.016" stroke="none" clip-path="url(#clipPath2)" xml:space="preserve">&lt;8e&gt; DW_AT_high_pc : 0x2e</text><text x="42" y="660.869" stroke="none" clip-path="url(#clipPath2)" xml:space="preserve">&lt;92&gt; DW_AT_frame_base : 1 byte block: 9c (DW_OP_call_frame_cfa)</text><text x="42" y="675.723" stroke="none" clip-path="url(#clipPath2)" xml:space="preserve">&lt;94&gt; DW_AT_GNU_all_tail_call_sites: 1</text><text x="42" y="690.576" stroke="none" clip-path="url(#clipPath2)" xml:space="preserve">&lt;94&gt; DW_AT_sibling : &lt;0xb5&gt;</text><rect width="485.295" height="182.242" x="40" y="515.045" fill="none" clip-path="url(#clipPath2)" rx="4" ry="4"/></g><g fill="#CCF" stroke="#CCF" shape-rendering="geometricPrecision" text-rendering="geometricPrecision" transform="matrix(1,0,0,1,15,15)"><rect width="485.295" height="93.121" x="80.824" y="707.287" stroke="none" clip-path="url(#clipPath2)"/></g><g stroke-linecap="butt" stroke-miterlimit="1.45" font-family="'CMU Typewriter Text Variable Width'" shape-rendering="geometricPrecision" text-rendering="geometricPrecision" transform="matrix(1,0,0,1,15,15)"><text x="82.824" y="719.43" stroke="none" clip-path="url(#clipPath2)" xml:space="preserve">&lt;2&gt;&lt;98&gt;: Abbrev Number: 6 (DW_TAG_formal_parameter)</text><text x="82.824" y="734.283" stroke="none" clip-path="url(#clipPath2)" xml:space="preserve">&lt;99&gt; DW_AT_name : (indirect string, offset: 0x9c): argc</text><text x="82.824" y="749.137" stroke="none" clip-path="url(#clipPath2)" xml:space="preserve">&lt;9d&gt; DW_AT_decl_file : 1</text><text x="82.824" y="763.99" stroke="none" clip-path="url(#clipPath2)" xml:space="preserve">&lt;9e&gt; DW_AT_decl_line : 3</text><text x="82.824" y="778.844" stroke="none" clip-path="url(#clipPath2)" xml:space="preserve">&lt;9f&gt; DW_AT_type : &lt;0x4f&gt;</text><text x="82.824" y="793.697" stroke="none" clip-path="url(#clipPath2)" xml:space="preserve">&lt;a3&gt; DW_AT_location : 2 byte block: 91 0 (DW_OP_fbreg: 0)</text><rect width="485.295" height="93.121" x="80.824" y="707.287" fill="none" clip-path="url(#clipPath2)"/></g><g fill="#CCF" stroke="#CCF" shape-rendering="geometricPrecision" text-rendering="geometricPrecision" transform="matrix(1,0,0,1,15,15)"><rect width="485.295" height="93.121" x="80.824" y="810.408" stroke="none" clip-path="url(#clipPath2)"/></g><g stroke-linecap="butt" stroke-miterlimit="1.45" font-family="'CMU Typewriter Text Variable Width'" shape-rendering="geometricPrecision" text-rendering="geometricPrecision" transform="matrix(1,0,0,1,15,15)"><text x="82.824" y="822.551" stroke="none" clip-path="url(#clipPath2)" xml:space="preserve">&lt;2&gt;&lt;a6&gt;: Abbrev Number: 6 (DW_TAG_formal_parameter)</text><text x="82.824" y="837.404" stroke="none" clip-path="url(#clipPath2)" xml:space="preserve">&lt;a7&gt; DW_AT_name : (indirect string, offset: 0xcf): argv</text><text x="82.824" y="852.258" stroke="none" clip-path="url(#clipPath2)" xml:space="preserve">&lt;ab&gt; DW_AT_decl_file : 1</text><text x="82.824" y="867.111" stroke="none" clip-path="url(#clipPath2)" xml:space="preserve">&lt;ac&gt; DW_AT_decl_line : 3</text><text x="82.824" y="881.965" stroke="none" clip-path="url(#clipPath2)" xml:space="preserve">&lt;ad&gt; DW_AT_type : &lt;0xb5&gt;</text><text x="82.824" y="896.818" stroke="none" clip-path="url(#clipPath2)" xml:space="preserve">&lt;b1&gt; DW_AT_location : 2 byte block: 91 4 (DW_OP_fbreg: 4)</text><rect width="485.295" height="93.121" x="80.824" y="810.408" fill="none" clip-path="url(#clipPath2)"/><path fill="none" d="M5 152.5578 L5 172.5352 L20 172.5352 L20 297.6562 L39.9743 297.6562" clip-path="url(#clipPath2)"/><path fill="none" d="M5 152.5578 L5 172.5352 L20 172.5352 L20 224.2422 L39.9743 224.2422" clip-path="url(#clipPath2)"/><path fill="none" d="M5 152.5578 L5 172.5352 L20 172.5352 L20 371.0703 L40 371.0703" clip-path="url(#clipPath2)"/><path fill="none" d="M5 152.5578 L5 172.5352 L20 172.5352 L20 444.4844 L39.9743 444.4844" clip-path="url(#clipPath2)"/><path fill="none" d="M5 152.5578 L5 172.5352 L20 172.5352 L20 495.6182 L40 495.6182" clip-path="url(#clipPath2)"/><path fill="none" d="M5 152.5578 L5 172.5352 L20 172.5352 L20 606.166 L39.9743 606.166" clip-path="url(#clipPath2)"/><path fill="none" d="M46.0568 697.3027 L46.5966 753.8477 L80.8237 753.8477" clip-path="url(#clipPath2)"/><path fill="none" d="M46.2681 697.2924 L46.2681 856.9688 L80.8237 856.9688" clip-path="url(#clipPath2)"/></g></g></svg>